PathFileType	4	(X/Y/Z)	C:\Users\Basilio\Documents\Thesis Gigler\squatting_fais\c3dfiles\073\SLS_back_pre3\markers_experimental.trc
DataRate	CameraRate	NumFrames	NumMarkers	Units	OrigDataRate	OrigDataStartFrame	OrigNumFrames
200.000000	200.000000	4	61	mm	200.000000	329	1317
Frame#	Time	FHD			LBHD			RBHD			C7			T10			CLAV			LSHO			LUUPA			LMUPA			LDUPA			LLEP			LMEP			LRAD			LUL			LRFIN			RSHO			RUPA1			RMUPA			RDUPA			RLEP			RMEP			RUL			RUFIN			LASI			RASI			USACR			LSACR			RSACR			LTHI1			LTHI2			LTHI3			LTHI4			LLFC			LMFC			LTIB1			LTIB2			LTIB3			LTIB4			LLMAL			LMMAL			LHEE			LMT1			LMT2			LMT5			RTHI			RTHI2			RTHI3			RTHI4			RLFC			RMFC			RTIB1			RTIB2			RTIB3			RTIB4			RLMAL			RMMAL			RHEE			RMT1			RMT2			RMT5			RRAD			
		X1	Y1	Z1	X2	Y2	Z2	X3	Y3	Z3	X4	Y4	Z4	X5	Y5	Z5	X6	Y6	Z6	X7	Y7	Z7	X8	Y8	Z8	X9	Y9	Z9	X10	Y10	Z10	X11	Y11	Z11	X12	Y12	Z12	X13	Y13	Z13	X14	Y14	Z14	X15	Y15	Z15	X16	Y16	Z16	X17	Y17	Z17	X18	Y18	Z18	X19	Y19	Z19	X20	Y20	Z20	X21	Y21	Z21	X22	Y22	Z22	X23	Y23	Z23	X24	Y24	Z24	X25	Y25	Z25	X26	Y26	Z26	X27	Y27	Z27	X28	Y28	Z28	X29	Y29	Z29	X30	Y30	Z30	X31	Y31	Z31	X32	Y32	Z32	X33	Y33	Z33	X34	Y34	Z34	X35	Y35	Z35	X36	Y36	Z36	X37	Y37	Z37	X38	Y38	Z38	X39	Y39	Z39	X40	Y40	Z40	X41	Y41	Z41	X42	Y42	Z42	X43	Y43	Z43	X44	Y44	Z44	X45	Y45	Z45	X46	Y46	Z46	X47	Y47	Z47	X48	Y48	Z48	X49	Y49	Z49	X50	Y50	Z50	X51	Y51	Z51	X52	Y52	Z52	X53	Y53	Z53	X54	Y54	Z54	X55	Y55	Z55	X56	Y56	Z56	X57	Y57	Z57	X58	Y58	Z58	X59	Y59	Z59	X60	Y60	Z60	X61	Y61	Z61	

330	1.645	-106.9374008178711	1628.282470703125	-748.1876831054689	-243.1252899169922	1609.76416015625	-775.350036621094	-270.0571289062501	1592.411499023438	-642.7958984375001	-310.8778686523438	1501.823974609375	-705.2550048828126	-426.994354248047	1185.840698242188	-727.4929809570314	-201.6059112548829	1398.544189453125	-707.5676269531251	-227.2557220458985	1460.897583007813	-845.0196533203127	-148.3145294189453	1387.216064453125	-940.1386718750002	-107.1250228881836	1404.220458984375	-916.2167968750002	-86.8814163208008	1358.089599609375	-950.6907348632815	16.57324028015137	1329.147705078125	-952.465515136719	9.065413475036623	1271.978393554688	-911.9788208007815	271.6892700195313	1341.494140625	-828.5727539062502	278.6085815429688	1340.55712890625	-902.8638305664065	354.3107299804688	1346.881591796875	-817.7471313476565	-210.7981872558594	1439.144653320313	-563.3167114257814	-128.1749572753907	1329.998168945313	-467.7776489257814	-87.61831665039064	1349.805297851563	-484.0556030273439	-67.21324920654298	1297.431640625	-463.402557373047	23.5553092956543	1274.84130859375	-464.9711303710939	16.56413650512696	1223.817626953125	-529.9794311523439	284.5262451171876	1310.571411132813	-512.6135864257814	363.8481140136719	1331.226928710938	-590.8867187500001	-298.0591430664063	991.8142089843752	-856.3325195312502	-299.5599975585938	991.593933105469	-610.0274047851564	-469.1641235351564	1084.604125976563	-730.4288330078126	-483.7336730957032	1057.678833007813	-758.6719970703126	-489.5282592773439	1056.820434570313	-702.0182495117189	-330.3638916015626	672.3813476562501	-912.105407714844	-292.2622375488282	597.8486328125001	-895.2626953125002	-251.7823333740235	602.7038574218751	-867.5018310546877	-321.2516784667969	545.3753051757814	-887.931579589844	-332.7467346191407	500.2039489746095	-888.4649047851565	-340.9268798828126	495.2317810058595	-753.5174560546876	-485.2052612304689	388.6041870117189	-842.600524902344	-540.0608520507814	433.1598510742189	-893.9639282226565	-535.6113281250001	393.8061828613282	-874.8662719726565	-610.4697265625001	371.2064819335938	-841.6577758789065	-740.7483520507814	398.3182983398439	-868.2698364257815	-713.1447753906251	392.7391052246095	-783.335144042969	-781.2830810546877	450.8934326171876	-824.5216064453127	-746.6164550781251	230.632064819336	-785.850769042969	-747.2492065429689	227.9403228759766	-825.6589355468752	-778.8557128906252	257.5111999511719	-876.2833251953127	-355.7748413085938	768.9246826171877	-545.0578002929689	-307.9376220703126	723.0878906250001	-548.6229858398439	-275.7693786621094	731.8263549804689	-552.4096679687501	-316.0897216796876	643.5003051757814	-573.9176025390626	-274.4577941894532	502.507537841797	-598.5773315429689	-266.2825012207032	504.3803710937501	-727.2097778320314	-252.9757385253907	346.1101684570313	-702.3734130859376	-289.5480041503907	262.1943969726563	-645.1035766601564	-265.0769042968751	261.3637084960938	-686.8491210937501	-291.0099792480469	224.5832519531251	-723.9371337890626	-358.6809082031251	96.05086517333987	-683.8721923828126	-350.2168273925782	130.2909698486328	-768.4102783203127	-430.9507141113282	81.24414062500001	-742.9926147460939	-206.6346893310547	57.39566040039064	-759.3757934570314	-206.1006927490235	51.78602600097658	-718.6765747070314	-248.6597442626954	33.82862091064454	-669.8276367187501	271.5164184570313	1307.895874023438	-584.8013916015626	
331	1.65	-105.9768829345703	1627.453247070313	-747.9350585937501	-242.5338592529297	1608.972045898438	-775.1882934570315	-269.4594726562501	1591.559692382813	-642.7130126953126	-310.2912902832032	1501.146850585938	-705.1367187500001	-427.0464782714845	1185.3818359375	-727.5646362304689	-201.0369720458985	1397.744018554688	-707.3858642578126	-226.6933898925782	1460.229858398438	-844.8223876953127	-147.8709869384766	1386.525390625	-940.037536621094	-106.6559066772461	1403.547119140625	-916.168884277344	-86.35191345214845	1357.3388671875	-950.5312500000002	16.94425392150879	1328.447021484375	-952.282897949219	9.536930084228517	1271.1748046875	-911.9219970703127	272.1879272460938	1340.6728515625	-828.3842773437502	279.3176269531251	1339.85693359375	-902.7436523437502	354.7825012207032	1346.06201171875	-817.6351318359377	-210.3936004638672	1438.241577148438	-563.1897583007814	-127.8040237426758	1329.034301757813	-467.6652221679689	-87.27015686035158	1348.878295898438	-483.9725952148439	-66.92955780029298	1296.44140625	-463.3275756835939	23.81044960021973	1273.812622070313	-464.8869018554689	16.89705085754395	1222.782836914063	-529.8228759765626	284.7985534667969	1309.505493164063	-512.2918701171876	364.1719055175782	1330.151611328125	-590.8182983398439	-298.3726196289063	991.0574340820315	-856.3598632812502	-300.1795654296876	991.0078125000002	-610.3970336914064	-469.3852844238282	1084.231811523438	-730.6525878906251	-484.2878723144532	1057.408325195313	-758.8619995117189	-489.7783508300782	1056.458374023438	-702.2113037109376	-330.8942260742188	671.8825683593751	-912.2272949218752	-292.7692871093751	597.2743530273439	-895.4761962890627	-252.3575134277344	602.0872802734376	-867.6726074218752	-321.8698425292969	544.8198852539064	-888.0673828125002	-333.3898620605469	499.6349182128907	-888.6180419921877	-341.5405883789063	494.5980224609376	-753.7509765625001	-485.9497680664064	388.0914001464845	-842.756774902344	-540.8563232421876	432.7839660644532	-894.1671142578127	-536.5636596679689	393.5647277832032	-875.164733886719	-611.2504882812501	370.8003845214844	-841.8452148437502	-741.5551757812501	398.0079345703126	-868.500427246094	-713.8442993164064	392.4290771484376	-783.5374755859377	-781.9581298828127	450.6117248535157	-824.7155761718752	-747.3297119140626	230.2896118164063	-786.2280883789065	-747.9995727539064	227.6543426513672	-825.738220214844	-779.611999511719	257.2473754882813	-876.4931640625002	-355.7697143554688	768.4168090820315	-545.0281982421876	-307.7872009277344	722.7881469726564	-548.6051635742189	-275.6134033203126	731.6072998046876	-552.2770385742189	-315.7167053222657	643.1281127929689	-573.8154907226564	-273.8133239746094	502.2912902832032	-598.3501586914064	-265.5845336914063	504.1473083496095	-726.9564819335939	-252.4205932617188	345.9243164062501	-702.0741577148439	-289.2451782226563	262.1017761230469	-645.0018920898439	-264.7137145996094	261.2024230957032	-686.6622314453126	-290.6860961914063	224.5653991699219	-723.7945556640626	-358.6914062500001	96.05177307128909	-683.8106079101564	-350.1234130859376	130.3441619873047	-768.3359985351565	-430.9284973144532	81.28006744384767	-743.0029296875001	-206.4542999267579	57.44594573974611	-759.2918701171876	-206.0954284667969	51.77137756347658	-718.7206420898439	-248.6576080322266	33.82976913452149	-669.8247680664064	271.7689514160157	1307.053588867188	-584.6516113281251	
332	1.655	-105.9222564697266	1626.610595703125	-747.6973876953126	-241.7921752929688	1608.19287109375	-775.0457153320315	-268.8992309570313	1590.640625	-642.4456787109376	-309.7323913574219	1500.41259765625	-705.0589599609376	-427.0538024902345	1184.976806640625	-727.6419677734376	-200.741195678711	1396.837158203125	-707.3685913085939	-226.2313232421876	1459.45166015625	-844.7580566406252	-147.3628387451172	1385.865356445313	-939.9192504882815	-106.203971862793	1402.779052734375	-916.0075683593752	-85.7650833129883	1356.603637695313	-950.3937988281252	17.31286239624024	1327.70458984375	-952.367126464844	9.997477531433107	1270.281982421875	-911.6851806640627	272.6575317382813	1339.872436523438	-828.3048095703127	279.7521667480469	1339.045532226563	-902.6655883789065	355.3497009277344	1345.182006835938	-817.5013427734377	-209.9604949951172	1437.3056640625	-563.0921630859376	-127.4580154418946	1328.140258789063	-467.6476135253907	-86.90502929687501	1347.935180664063	-483.7738342285157	-66.66263580322267	1295.397705078125	-463.1714477539064	24.15287017822266	1272.801879882813	-464.7229309082032	17.20661354064942	1221.85205078125	-529.6666870117189	285.2436828613282	1308.490356445313	-512.2013549804689	364.4926757812501	1329.107788085938	-590.4534912109376	-298.6367187500001	990.3076782226565	-856.5606079101565	-300.6359558105469	990.379089355469	-610.4934692382814	-469.6994628906251	1083.890625	-730.8270263671876	-484.5710449218751	1057.075805664063	-759.0219116210939	-490.1180419921876	1055.973266601563	-702.3438110351564	-331.1211853027344	671.7008056640626	-911.894470214844	-293.4613647460938	596.6124877929689	-895.5976562500002	-253.0507812500001	601.4000244140626	-867.907897949219	-322.5172729492188	544.2169799804689	-888.2554931640627	-334.1653747558594	499.0179748535157	-888.7482910156252	-342.2351379394532	494.0737915039064	-753.9421386718751	-486.6816711425782	387.6058959960939	-843.019226074219	-541.5430297851564	432.3292846679689	-894.387390136719	-537.4425659179689	393.1308898925782	-875.503356933594	-612.0047607421876	370.3324584960938	-842.2505493164065	-742.2253417968751	397.6687927246095	-868.6823730468752	-714.4556274414064	392.1670532226564	-783.6810302734377	-782.705017089844	450.2864685058595	-824.848571777344	-748.1172485351564	230.0590362548829	-786.3658447265627	-748.8869628906251	227.2527923583985	-825.853942871094	-780.3693847656252	256.9492492675782	-876.7312622070315	-355.8066101074219	767.9450073242189	-544.9610595703126	-307.6250610351563	722.4176025390626	-548.5777587890626	-275.4654846191407	731.3695068359376	-552.1238403320314	-315.3341674804688	642.7070312500001	-573.6581420898439	-273.0621337890626	502.0839843750001	-598.0572509765626	-264.8167114257813	503.9776916503907	-726.7431030273439	-251.9150848388672	345.7727661132813	-701.9223022460939	-289.0132141113282	262.0083618164063	-644.8402099609376	-264.3807373046876	261.0342712402344	-686.4576416015626	-290.5715026855469	224.4155731201172	-723.6547851562501	-358.6744384765626	95.99087524414064	-683.8021240234376	-350.0284423828126	130.4197845458985	-768.2539672851565	-430.9359436035157	81.3064651489258	-743.0072631835939	-206.4666748046876	57.50985717773439	-759.2385864257814	-206.0731658935547	51.80054855346681	-718.6488647460939	-248.6597137451172	33.79483032226563	-669.8152465820314	272.1105957031251	1305.931884765625	-584.5563354492189	
333	1.66	-105.3387222290039	1625.659912109375	-747.5053100585939	-241.0214538574219	1607.325317382813	-774.8933105468752	-268.2649230957032	1589.716796875	-642.3023681640626	-309.1395568847657	1499.627197265625	-704.9819946289064	-427.0821228027345	1184.531982421875	-727.7634277343751	-200.3898315429688	1395.83251953125	-707.3213500976564	-225.5504302978516	1458.720458984375	-844.5633544921877	-146.836669921875	1385.092163085938	-939.780456542969	-105.6354904174805	1402.025634765625	-915.8782348632815	-85.33209228515626	1355.810424804688	-950.4508056640627	17.96023559570313	1326.936767578125	-952.178894042969	10.60054016113281	1269.584838867188	-911.664245605469	273.1903686523438	1339.012451171875	-828.2652587890627	280.3337707519532	1338.139404296875	-902.5102539062502	355.8424072265626	1344.367919921875	-817.366149902344	-209.4849395751954	1436.473022460938	-563.0466308593751	-127.1763687133789	1327.19091796875	-467.488983154297	-86.56168365478517	1346.95361328125	-483.6441955566407	-66.25762939453126	1294.52587890625	-463.0320129394532	24.43215942382813	1271.841186523438	-464.505584716797	17.50350570678711	1220.889770507813	-529.6012573242189	285.5174560546876	1307.405029296875	-512.0938110351564	364.7853698730469	1328.008666992188	-590.3387451171876	-298.9464111328126	989.6707763671877	-856.6165771484377	-301.0873107910157	989.7475585937502	-610.6215820312501	-469.942840576172	1083.561645507813	-731.0319213867189	-484.7938537597657	1056.688110351563	-759.1623535156251	-490.4924926757814	1055.573852539063	-702.5274047851564	-332.0007019042969	670.6484375000001	-912.4390258789065	-294.0786132812501	595.9558105468751	-895.7309570312502	-253.7352752685547	600.7449340820314	-868.0493164062502	-323.2100524902344	543.6491699218751	-888.3423461914065	-334.8006591796876	498.4471740722657	-888.9271240234377	-342.9305725097657	493.5295715332032	-754.0720214843751	-487.4833068847657	387.0857849121095	-843.3168945312502	-542.1648559570314	431.9383544921876	-894.5205078125002	-537.7449951171876	392.4619750976564	-875.3433837890627	-612.7737426757814	369.9628295898438	-842.4129028320315	-742.9587402343751	397.3983154296876	-868.9548339843752	-715.4009399414064	391.8145751953126	-783.962341308594	-783.4291992187502	450.010955810547	-825.2022094726565	-749.1250610351564	229.6637420654297	-786.4152832031252	-749.9546508789064	226.8855133056641	-825.963562011719	-781.3374023437502	256.5606689453126	-877.0377197265627	-355.7453002929688	767.5007934570314	-544.9619140625001	-307.4695739746094	722.0990600585939	-548.5239868164064	-275.3535156250001	731.1220092773439	-552.0260009765626	-314.9704284667969	642.2589721679689	-573.5346679687501	-272.3586730957032	501.9310913085939	-597.7657470703126	-263.2070922851563	503.6991577148439	-726.7770996093751	-251.5447235107422	345.6179199218751	-701.7789916992189	-288.7650146484376	261.8565673828126	-644.6636352539064	-264.0297546386719	260.8690490722657	-686.3405151367189	-290.3031005859376	224.3504791259766	-723.5386962890626	-358.6864929199219	96.00634765625003	-683.7681884765626	-349.9377441406251	130.447250366211	-768.2126464843752	-430.9226074218751	81.30522918701173	-742.9988403320314	-206.4600830078126	57.49440765380861	-759.2448730468751	-206.0758209228516	51.8079299926758	-718.5698242187501	-248.6255187988282	33.7773666381836	-669.7785034179689	272.3769836425782	1304.984252929688	-584.1881103515626	
